<svg width="25" height="25" viewBox="0 0 25 25" fill="none" xmlns="http://www.w3.org/2000/svg">
<path d="M22.75 10.8718H2.75M11.75 14.8718H6.75M2.75 9.07183L2.75 16.6718C2.75 17.7919 2.75 18.352 2.96799 18.7798C3.15973 19.1561 3.46569 19.4621 3.84202 19.6538C4.26984 19.8718 4.82989 19.8718 5.95 19.8718L19.55 19.8718C20.6701 19.8718 21.2302 19.8718 21.658 19.6538C22.0343 19.4621 22.3403 19.1561 22.532 18.7798C22.75 18.352 22.75 17.7919 22.75 16.6718V9.07183C22.75 7.95172 22.75 7.39167 22.532 6.96385C22.3403 6.58752 22.0343 6.28156 21.658 6.08981C21.2302 5.87183 20.6701 5.87183 19.55 5.87183L5.95 5.87183C4.8299 5.87183 4.26984 5.87183 3.84202 6.08981C3.4657 6.28156 3.15973 6.58752 2.96799 6.96384C2.75 7.39167 2.75 7.95172 2.75 9.07183Z" stroke="white" stroke-width="2" stroke-linecap="round" stroke-linejoin="round"/>
</svg>
